<svg xmlns="http://www.w3.org/2000/svg" width="127.333" height="129.633" viewBox="0 0 127.333 129.633">
  <path id="icons8_crescent_city_2" d="M68.242,3a65.35,65.35,0,0,1,8.472.612,53.952,53.952,0,0,0-46.186,51.4,59.525,59.525,0,0,1,5.306-3.4s13.5,6.752,13.5,14.854a9.851,9.851,0,0,1-2.426,6.8,5.376,5.376,0,0,1,5.127,5.348v10.8h5.4V67.816h10.8V89.422h5.4v-5.4a5.376,5.376,0,0,1,5.127-5.348,9.849,9.849,0,0,1-2.426-6.8c0-8.1,13.5-14.854,13.5-14.854s13.5,6.752,13.5,14.854a9.847,9.847,0,0,1-2.426,6.8,5.376,5.376,0,0,1,5.127,5.348v5.4h5.4V67.816h10.8V95.509a54.555,54.555,0,0,0,8.5-10.8A64.79,64.79,0,1,1,68.242,3Zm48.612,43.211a2.073,2.073,0,0,1,1.973,1.371l3.429,9.136v3.893h-10.8V56.718l3.429-9.136A2.076,2.076,0,0,1,116.854,46.211Zm-54.014,0a2.073,2.073,0,0,1,1.973,1.371l3.429,9.136v3.893h-10.8V56.718l3.429-9.136A2.076,2.076,0,0,1,62.841,46.211Z" transform="translate(-3.426 -3)" fill="#f9f6e5"/>
</svg>
