<svg xmlns="http://www.w3.org/2000/svg" xmlns:xlink="http://www.w3.org/1999/xlink" viewBox="0 0 50 50" fill="#5C93C4">
  <path d="M24.90625 3.96875C24.863281 3.976563 24.820313 3.988281 24.78125 4C24.316406 4.105469 23.988281 4.523438 24 5L24 11C23.996094 11.359375 24.183594 11.695313 24.496094 11.878906C24.808594 12.058594 25.191406 12.058594 25.503906 11.878906C25.816406 11.695313 26.003906 11.359375 26 11L26 5C26.011719 4.710938 25.894531 4.433594 25.6875 4.238281C25.476563 4.039063 25.191406 3.941406 24.90625 3.96875 Z M 10.65625 9.84375C10.28125 9.910156 9.980469 10.183594 9.875 10.546875C9.769531 10.914063 9.878906 11.304688 10.15625 11.5625L14.40625 15.8125C14.648438 16.109375 15.035156 16.246094 15.410156 16.160156C15.78125 16.074219 16.074219 15.78125 16.160156 15.410156C16.246094 15.035156 16.109375 14.648438 15.8125 14.40625L11.5625 10.15625C11.355469 9.933594 11.054688 9.820313 10.75 9.84375C10.71875 9.84375 10.6875 9.84375 10.65625 9.84375 Z M 39.03125 9.84375C38.804688 9.875 38.59375 9.988281 38.4375 10.15625L34.1875 14.40625C33.890625 14.648438 33.753906 15.035156 33.839844 15.410156C33.925781 15.78125 34.21875 16.074219 34.589844 16.160156C34.964844 16.246094 35.351563 16.109375 35.59375 15.8125L39.84375 11.5625C40.15625 11.265625 40.246094 10.800781 40.0625 10.410156C39.875 10.015625 39.460938 9.789063 39.03125 9.84375 Z M 25 15C19.484375 15 15 19.484375 15 25C15 30.515625 19.484375 35 25 35C30.515625 35 35 30.515625 35 25C35 19.484375 30.515625 15 25 15 Z M 4.71875 24C4.167969 24.078125 3.78125 24.589844 3.859375 25.140625C3.9375 25.691406 4.449219 26.078125 5 26L11 26C11.359375 26.003906 11.695313 25.816406 11.878906 25.503906C12.058594 25.191406 12.058594 24.808594 11.878906 24.496094C11.695313 24.183594 11.359375 23.996094 11 24L5 24C4.96875 24 4.9375 24 4.90625 24C4.875 24 4.84375 24 4.8125 24C4.78125 24 4.75 24 4.71875 24 Z M 38.71875 24C38.167969 24.078125 37.78125 24.589844 37.859375 25.140625C37.9375 25.691406 38.449219 26.078125 39 26L45 26C45.359375 26.003906 45.695313 25.816406 45.878906 25.503906C46.058594 25.191406 46.058594 24.808594 45.878906 24.496094C45.695313 24.183594 45.359375 23.996094 45 24L39 24C38.96875 24 38.9375 24 38.90625 24C38.875 24 38.84375 24 38.8125 24C38.78125 24 38.75 24 38.71875 24 Z M 15 33.875C14.773438 33.90625 14.5625 34.019531 14.40625 34.1875L10.15625 38.4375C9.859375 38.679688 9.722656 39.066406 9.808594 39.441406C9.894531 39.8125 10.1875 40.105469 10.558594 40.191406C10.933594 40.277344 11.320313 40.140625 11.5625 39.84375L15.8125 35.59375C16.109375 35.308594 16.199219 34.867188 16.039063 34.488281C15.882813 34.109375 15.503906 33.867188 15.09375 33.875C15.0625 33.875 15.03125 33.875 15 33.875 Z M 34.6875 33.875C34.3125 33.941406 34.011719 34.214844 33.90625 34.578125C33.800781 34.945313 33.910156 35.335938 34.1875 35.59375L38.4375 39.84375C38.679688 40.140625 39.066406 40.277344 39.441406 40.191406C39.8125 40.105469 40.105469 39.8125 40.191406 39.441406C40.277344 39.066406 40.140625 38.679688 39.84375 38.4375L35.59375 34.1875C35.40625 33.988281 35.148438 33.878906 34.875 33.875C34.84375 33.875 34.8125 33.875 34.78125 33.875C34.75 33.875 34.71875 33.875 34.6875 33.875 Z M 24.90625 37.96875C24.863281 37.976563 24.820313 37.988281 24.78125 38C24.316406 38.105469 23.988281 38.523438 24 39L24 45C23.996094 45.359375 24.183594 45.695313 24.496094 45.878906C24.808594 46.058594 25.191406 46.058594 25.503906 45.878906C25.816406 45.695313 26.003906 45.359375 26 45L26 39C26.011719 38.710938 25.894531 38.433594 25.6875 38.238281C25.476563 38.039063 25.191406 37.941406 24.90625 37.96875Z" fill="#5C93C4" />
</svg>