<svg xmlns="http://www.w3.org/2000/svg" xmlns:xlink="http://www.w3.org/1999/xlink" viewBox="0 0 50 50" fill="#5C93C4">
  <path d="M25 0.09375L24.28125 0.78125L17.40625 7.6875C17.109375 7.929688 16.972656 8.316406 17.058594 8.691406C17.144531 9.0625 17.4375 9.355469 17.808594 9.441406C18.183594 9.527344 18.570313 9.390625 18.8125 9.09375L24 3.9375L24 20C23.996094 20.359375 24.183594 20.695313 24.496094 20.878906C24.808594 21.058594 25.191406 21.058594 25.503906 20.878906C25.816406 20.695313 26.003906 20.359375 26 20L26 3.9375L31.1875 9.09375C31.429688 9.390625 31.816406 9.527344 32.191406 9.441406C32.5625 9.355469 32.855469 9.0625 32.941406 8.691406C33.027344 8.316406 32.890625 7.929688 32.59375 7.6875L25.71875 0.78125 Z M 24.90625 27.96875C24.863281 27.976563 24.820313 27.988281 24.78125 28C24.316406 28.105469 23.988281 28.523438 24 29L24 35C23.996094 35.359375 24.183594 35.695313 24.496094 35.878906C24.808594 36.058594 25.191406 36.058594 25.503906 35.878906C25.816406 35.695313 26.003906 35.359375 26 35L26 29C26.011719 28.710938 25.894531 28.433594 25.6875 28.238281C25.476563 28.039063 25.191406 27.941406 24.90625 27.96875 Z M 10.78125 33.875C10.390625 33.914063 10.058594 34.175781 9.933594 34.542969C9.804688 34.914063 9.90625 35.324219 10.1875 35.59375L14.40625 39.8125C14.648438 40.109375 15.035156 40.246094 15.410156 40.160156C15.78125 40.074219 16.074219 39.78125 16.160156 39.410156C16.246094 39.035156 16.109375 38.648438 15.8125 38.40625L11.59375 34.1875C11.40625 33.988281 11.148438 33.878906 10.875 33.875C10.84375 33.875 10.8125 33.875 10.78125 33.875 Z M 39 33.875C38.773438 33.90625 38.5625 34.019531 38.40625 34.1875L34.1875 38.40625C33.890625 38.648438 33.753906 39.035156 33.839844 39.410156C33.925781 39.78125 34.21875 40.074219 34.589844 40.160156C34.964844 40.246094 35.351563 40.109375 35.59375 39.8125L39.8125 35.59375C40.109375 35.308594 40.199219 34.867188 40.039063 34.488281C39.882813 34.109375 39.503906 33.867188 39.09375 33.875C39.0625 33.875 39.03125 33.875 39 33.875 Z M 25 39C19.824219 39 15.566406 42.953125 15.0625 48L1 48C0.449219 48 0 48.445313 0 49C0 49.554688 0.449219 50 1 50L49 50C49.554688 50 50 49.554688 50 49C50 48.445313 49.554688 48 49 48L34.9375 48C34.433594 42.953125 30.175781 39 25 39Z" fill="#5C93C4" />
</svg>